<svg width="162" height="40" viewBox="0 0 162 40" fill="none" xmlns="http://www.w3.org/2000/svg">
<g clip-path="url(#clip0_66_5868)">
<path d="M36.2612 27.9318C34.4539 30.1112 32.1589 31.1935 29.3618 31.1935C25.3885 31.1935 22.8066 28.9696 22.8066 25.619C22.8066 22.1794 25.2594 19.911 29.4048 19.0215C30.7388 18.7102 32.9908 18.3988 36.1752 18.043V16.4418C36.1752 13.9956 34.1527 12.1572 31.3413 12.1572C28.6303 12.1572 26.6795 13.536 26.6795 15.3744C26.6795 15.5967 26.7225 15.7746 26.7656 15.9526L23.5238 16.6049C23.3947 16.2491 23.3517 15.8043 23.3517 15.2706C23.3517 11.6086 26.8086 8.89548 31.5851 8.89548C36.2038 8.89548 39.6033 11.8903 39.6033 15.9822V26.5085C39.6033 27.3981 40.2058 28.0652 41.0664 28.0652C42.2283 28.0652 43.0459 26.5085 43.0459 24.4033L45.9864 25.1149C45.9864 28.599 43.7057 31.1787 40.7222 31.1787C38.4558 31.1935 36.6485 29.8443 36.2612 27.9318ZM36.1752 24.685V20.7561C33.0195 21.1564 30.7388 21.5567 29.3188 21.957C27.4684 22.4907 26.3783 23.7806 26.3783 25.2187C26.3783 26.9533 27.7123 28.1245 29.7491 28.1245C32.288 28.1097 34.6547 26.8199 36.1752 24.685Z" fill="black"/>
<path d="M79.451 24.2847L75.1478 11.0749V30.7487H72.0352V9.34025H78.16L82.3054 22.2239L86.3217 9.34025H92.4035V30.7487H89.2909V11.1193L84.8012 24.2847H79.451Z" fill="black"/>
<path d="M112.37 30.7487V11.1193L103.391 30.7487H98.1265V9.34025H101.411V27.487L109.817 9.34025H115.64V30.7487H112.37Z" fill="black"/>
<path d="M136.597 30.7487L128.536 21.6457H124.778C124.778 26.7754 124.778 29.7999 124.821 30.7487H121.364C121.407 28.6138 121.407 25.0408 121.407 20.0445C121.407 15.0482 121.407 11.49 121.364 9.34025H124.821C124.778 11.1638 124.778 14.1586 124.778 18.3543H128.622L136.425 9.34025H140.742L131.72 19.7331L141.431 30.7487H136.597Z" fill="black"/>
<path d="M161.541 24.596C160.035 28.6583 156.363 31.1935 152.002 31.1935C146.093 31.1935 141.689 26.5975 141.689 20.0445C141.689 13.536 146.093 8.89548 152.002 8.89548C156.922 8.89548 160.852 12.0237 161.971 16.8718L158.787 17.9392C158.055 14.5886 155.373 12.4092 152.06 12.4092C148.043 12.4092 145.074 15.6264 145.074 20.0297C145.074 24.4477 148.058 27.6501 152.06 27.6501C154.957 27.6501 157.367 25.9155 158.4 23.0986L161.541 24.596Z" fill="black"/>
<path d="M14.3872 30.719V21.4381H3.5145V30.719H0.0576172V9.3106H3.5145V18.1468H14.3872V9.3106H17.8297V30.719H14.3872Z" fill="black"/>
<path d="M11.5179 37.3165C11.5179 38.7843 10.3704 39.9704 8.95037 39.9704C7.53032 39.9704 6.38281 38.7843 6.38281 37.3165C6.38281 35.8488 7.53032 34.6627 8.95037 34.6627C10.3704 34.6627 11.5179 35.8488 11.5179 37.3165Z" fill="black"/>
<path d="M11.5179 2.72795C11.5179 4.1957 10.3704 5.38176 8.95037 5.38176C7.53032 5.38176 6.38281 4.1957 6.38281 2.72795C6.38281 1.26019 7.53032 0.074129 8.95037 0.074129C10.3704 0.074129 11.5179 1.26019 11.5179 2.72795Z" fill="black"/>
<path d="M62.6256 0.0593032C62.6256 3.03929 60.3019 5.39659 57.4187 5.39659C54.6217 5.39659 52.2119 3.03929 52.2119 0.0593032H54.8942C54.8942 3.45441 59.9289 3.45441 59.9289 0.0593032H62.6256Z" fill="black"/>
<path d="M62.8981 30.7932V11.1787L53.9332 30.7932H48.6689V9.38473H51.9394V27.5315L60.3592 9.38473H66.1828V30.7932H62.8981Z" fill="black"/>
</g>
<defs>
<clipPath id="clip0_66_5868">
<rect width="162" height="40" fill="white"/>
</clipPath>
</defs>
</svg>
